<svg width="34" height="24" viewBox="0 0 34 24" fill="none" xmlns="http://www.w3.org/2000/svg">
<rect x="13" width="3" height="3" fill="black"/>
<rect x="16" y="6" width="2" height="2" fill="black"/>
<path fill-rule="evenodd" clip-rule="evenodd" d="M31.7182 24H12.8911V0C12.8911 0 26.8386 13.1735 33.4917 19.5737C34.476 21.9828 34.1077 23.0874 31.7182 24Z" fill="white" fill-opacity="0.95"/>
<path fill-rule="evenodd" clip-rule="evenodd" d="M31.7184 0H12.8911V24C12.8911 24 26.8385 10.8265 33.4917 4.4263C34.476 2.01721 34.1077 0.912552 31.7184 0Z" fill="#25CAAC" fill-opacity="0.95"/>
<rect x="10" width="3" height="3" fill="white"/>
<rect x="8" y="3" width="2" height="3" fill="white"/>
<rect x="10" y="6" width="3" height="2" fill="white"/>
<rect x="13" y="8" width="3" height="2" fill="black"/>
<rect x="13" y="3" width="3" height="3" fill="white"/>
<rect x="5" width="3" height="3" fill="#25CAAC"/>
<rect x="5" y="8" width="3" height="2" fill="white"/>
<rect x="8" y="10" width="2" height="4" fill="black"/>
<rect x="8" y="8" width="2" height="2" fill="#25CAAC"/>
<rect x="3" y="3" width="2" height="3" fill="white"/>
<rect width="3" height="3" fill="#25CAAC"/>
<rect x="3" y="6" width="2" height="2" fill="#25CAAC"/>
<rect x="10" y="10" width="3" height="4" fill="white"/>
<rect x="10" y="14" width="3" height="2" fill="#25CAAC"/>
<rect x="10" y="16" width="3" height="2" fill="black"/>
<rect x="8" y="16" width="2" height="2" fill="white"/>
<rect x="3" y="14" width="2" height="2" fill="#25CAAC"/>
</svg>
